<svg version="1.1" xmlns="http://www.w3.org/2000/svg" viewBox="-29.931754348630655 -10.429964061384782 60.75827760245343 19.11870533990425" fill="none" stroke="black" stroke-width="0.6%" vector-effect="non-scaling-stroke">
    <path d="M -6.63461 -6.72682 L -6.63461 -7.62161 L -12.3595 -8.82466 L -20.55862 -7.98465 L -14.83373 -6.7816 L -6.63461 -7.62161" />
    <path d="M -20.55862 -6.39003 L -20.55862 -7.98465" />
    <path d="M -14.83373 -5.37606 L -14.83373 -6.7816" />
    <path d="M -11.97129 -3.37584 L -11.97129 -6.18007 L -6.2464 -4.97702 L 1.95273 -5.81703 L -3.77216 -7.02008 L -11.97129 -6.18007" />
    <path d="M -6.2464 -3.46556 L -6.2464 -4.97702" />
    <path d="M 1.95273 -4.92225 L 1.95273 -5.81703" />
    <path d="M -4.1919 4.70426 L -3.38395 4.62148" />
    <path d="M -3.38395 5.51627 L -3.38395 -4.3755 L 2.34094 -3.17245 L 10.54006 -4.01246 L 4.81517 -5.21551 L -3.38395 -4.3755" />
    <path d="M 2.34094 6.71932 L 2.34094 -3.17245" />
    <path d="M -3.38395 5.51627 L 2.34094 6.71932 L 10.54006 5.87931 L 10.54006 -4.01246" />
    <path d="M -20.17041 -5.34007 A 5 0.73365 360 0 1 -12.30796 -4.73854 A 5 0.73365 360 0 1 -22.30796 -4.73854 A 5 0.73365 360 0 1 -20.17041 -5.34007 Z" />
    <path d="M -22.30796 5.15323 A 5 0.73365 180 0 0 -13.24936 5.58171" />
    <path d="M -4.1919 7.26874 L -4.1919 -2.62303 L -4.62107 -3.35397 L -9.1498 -3.6649 L -13.24936 -3.2449 L -12.82019 -2.51396 L -8.29146 -2.20303 L -4.1919 -2.62303" />
    <path d="M -13.24936 6.64687 L -13.24936 -3.2449" />
    <path d="M -12.82019 7.37781 L -12.82019 -2.51396" />
    <path d="M -13.24936 6.64687 L -12.82019 7.37781 L -8.29146 7.68874 L -4.1919 7.26874" />
    <path d="M -8.29146 7.68874 L -8.29146 -2.20303" />
    <path d="M -25.05886 -6.1019 L -25.05886 -6.24695 L -27.95338 -5.95041 L -28.93175 -6.15601 L -22.55421 -6.80939 L -21.57584 -6.60379 L -23.85382 -6.37041 L -23.38979 -6.2729 L -21.11181 -6.50628 L -20.13343 -6.30068 L -26.51097 -5.64729 L -27.48935 -5.85289 L -24.59483 -6.14944 L -25.05886 -6.24695" />
    <path d="M -27.95338 3.94136 L -27.95338 -5.95041" />
    <path d="M -27.48935 3.89382 L -27.95338 3.94136 L -28.93175 3.73576 L -28.93175 -6.15601" />
    <path d="M -21.57584 -6.45874 L -21.57584 -6.60379" />
    <path d="M -20.13343 -5.34382 L -20.13343 -6.30068" />
    <path d="M -26.51097 4.24447 L -26.51097 -5.64729" />
    <path d="M -22.30796 3.81387 L -26.51097 4.24447 L -27.48935 4.03887 L -27.48935 -5.85289" />
    <path d="M 15.7846 5.69992 L 15.7846 -4.19185 L 21.50949 -2.9888 L 26.36272 -2.70942" />
    <path d="M 21.50949 6.90297 L 21.50949 -2.9888" />
    <path d="M 15.7846 5.69992 L 21.50949 6.90297 L 26.36272 7.18235 A 2.5 0.36682 180 0 0 29.82652 6.84388" />
    <path d="M 26.36272 7.18235 L 26.36272 -2.70942" />
    <path d="M 29.8241 -3.06404 A 2.5 0.36682 360 0 1 29.82652 -3.04789 L 29.82652 6.84388" />
    <path d="M 29.82652 -3.04789 A 2.5 0.36682 360 0 1 26.36272 -2.70942" />
    <path d="M 29.8241 -3.06404 L 29.70862 -3.82881 L 23.98373 -5.03186 L 15.7846 -4.19185" />
    <path d="M -2.72915 -9.3639 A 2.5 0.36682 360 0 1 -0.86054 -9.42431 A 2.5 0.36682 360 0 1 1.19848 -9.08281 C 1.22 -9.02 1.25 -8.95 1.27163 -8.88517 C 1.3 -8.82 1.32 -8.75 1.34536 -8.6905 C 1.37 -8.63 1.39 -8.56 1.41962 -8.49892 C 1.44 -8.44 1.47 -8.37 1.49437 -8.31052 C 1.52 -8.25 1.54 -8.19 1.56955 -8.12541 C 1.59 -8.06 1.62 -8 1.64514 -7.94368 C 1.67 -7.88 1.7 -7.82 1.72106 -7.76541 C 1.75 -7.71 1.77 -7.65 1.79728 -7.59068" />
    <path d="M 1.19848 -9.08281 A 2.5 0.36682 360 0 1 1.16351 -8.99896 A 2.5 0.36682 360 0 1 0.13329 -8.76238 A 2.5 0.36682 360 0 1 -1.73531 -8.70198 A 2.5 0.36682 360 0 1 -3.79337 -9.08527 C -3.81 -9.03 -3.84 -8.98 -3.85671 -8.93363 C -3.88 -8.88 -3.9 -8.83 -3.91984 -8.7866 C -3.94 -8.74 -3.96 -8.69 -3.9827 -8.64422 C -4 -8.6 -4.02 -8.55 -4.04521 -8.50652 L -8.25993 0.64711" />
    <path d="M 1.16351 -8.99896 L 5.66408 1.01015" />
    <path d="M -1.73531 -8.70198 L -2.53504 1.85016" />
    <path d="M -3.79337 -9.08527 A 2.5 0.36682 360 0 1 -3.75937 -9.12732 A 2.5 0.36682 360 0 1 -2.72915 -9.3639" />
    <path d="M 14.44552 -5.75475 A 2.5 0.36682 360 0 1 18.37674 -5.45399 L 18.37674 -4.45742" />
    <path d="M 18.37674 -5.45399 A 2.5 0.36682 360 0 1 13.37674 -5.45399 L 13.37674 4.43778 A 2.5 0.36682 180 0 0 15.7846 4.80435" />
    <path d="M 13.37674 -5.45399 A 2.5 0.36682 360 0 1 14.44552 -5.75475" />
    <path d="M 0.3274 -6.15858 L 0.3274 -7.44009 L 6.05229 -6.23704 L 14.25141 -7.07704 L 8.52652 -8.28009 L 0.3274 -7.44009" />
    <path d="M 6.05229 -4.95553 L 6.05229 -6.23704" />
    <path d="M 14.25141 -5.73271 L 14.25141 -7.07704" />
    <path d="M 10.54006 3.19495 L 13.37674 2.90433" />
    <path d="M 5.85818 -7.55933 A 2.5 0.36682 180 0 0 4.78941 -7.25856 A 2.5 0.36682 180 0 0 9.78941 -7.25856 A 2.5 0.36682 180 0 0 5.85818 -7.55933 Z" />
    <path d="M -22.30796 -4.73854 L -22.30796 5.15323" />
    <path d="M -12.30796 -4.73854 L -12.30796 -3.34135" />
</svg>