<svg version="1.1" xmlns="http://www.w3.org/2000/svg" viewBox="-18.476819570469694 -10.782583786231678 40.6767781845317 21.17256759620844" fill="none" stroke="black" stroke-width="0.6%" vector-effect="non-scaling-stroke">
    <path d="M 5.29999 -6.80109 L 5.29999 -8.02392 L 0 -9.78258 L -8.47998 -8.68342 L -3.17999 -6.92475 L 5.29999 -8.02392" />
    <path d="M -8.47998 -5.00604 L -8.47998 -8.68342" />
    <path d="M -3.17999 -4.86712 L -3.17999 -6.92475" />
    <path d="M -0.53 -2.21312 L -0.53 -6.04542 L 4.76999 -4.28675 L 13.24997 -5.38592 L 7.94998 -7.14458 L -0.53 -6.04542" />
    <path d="M 4.76999 -2.09536 L 4.76999 -4.28675" />
    <path d="M 13.24997 -4.16309 L 13.24997 -5.38592" />
    <path d="M 6.00496 5.33576 L 7.41999 5.15234" />
    <path d="M 7.41999 6.37517 L 7.41999 -3.40742 L 12.71997 -1.64875 L 21.19996 -2.74792 L 15.89997 -4.50658 L 7.41999 -3.40742" />
    <path d="M 12.71997 8.13383 L 12.71997 -1.64875" />
    <path d="M 7.41999 6.37517 L 12.71997 8.13383 L 21.19996 7.03467 L 21.19996 -2.74792" />
    <path d="M -9.00998 -4.94625 A 5 1.03695 360 0 1 -1.35999 -4.06692 L -1.35999 -2.10554" />
    <path d="M -1.35999 -4.06692 A 5 1.03695 360 0 1 -11.35999 -4.06692 L -11.35999 5.71567 A 5 1.03695 180 0 0 -2.82496 6.44901" />
    <path d="M -11.35999 -4.06692 A 5 1.03695 360 0 1 -9.00998 -4.94625" />
    <path d="M 6.00496 8.8404 L 6.00496 -0.94218 L 5.82999 -1.9785 L 1.41503 -2.46523 L -2.82496 -1.91565 L -2.64999 -0.87933 L 1.76496 -0.3926 L 6.00496 -0.94218" />
    <path d="M -2.82496 7.86693 L -2.82496 -1.91565" />
    <path d="M -2.64999 8.90325 L -2.64999 -0.87933" />
    <path d="M -2.82496 7.86693 L -2.64999 8.90325 L 1.76496 9.38998 L 6.00496 8.8404" />
    <path d="M 1.76496 9.38998 L 1.76496 -0.3926" />
    <path d="M -13.57739 -6.07979 L -13.57739 -6.27802 L -16.57106 -5.88999 L -17.47682 -6.19054 L -10.88082 -7.04551 L -9.97506 -6.74495 L -12.33107 -6.43957 L -11.90148 -6.29702 L -9.54547 -6.60241 L -8.63971 -6.30185 L -15.23571 -5.44689 L -16.14147 -5.74744 L -13.1478 -6.13547 L -13.57739 -6.27802" />
    <path d="M -16.57106 3.8926 L -16.57106 -5.88999" />
    <path d="M -16.14147 3.83691 L -16.57106 3.8926 L -17.47682 3.59204 L -17.47682 -6.19054" />
    <path d="M -9.97506 -6.54672 L -9.97506 -6.74495" />
    <path d="M -8.63971 -4.98981 L -8.63971 -6.30185" />
    <path d="M -15.23571 4.3357 L -15.23571 -5.44689" />
    <path d="M -11.35999 3.83333 L -15.23571 4.3357 L -16.14147 4.03514 L -16.14147 -5.74744" />
</svg>